P1
# CREATOR: GIMP PNM Filter Version 1.1
64 77
0000000000000000000000000000000000000000000000000000000000000000000000
0000000000000000000000010000100000000000000000000000000000000000000000
0000000000000000100000010000000000000000000000000000000000000000000000
0000000001000000001000000000000000000000000000000000000000000000000000
0010000000000100000000000000000000000000000000000000000000000000011000
0110000110000000000000000000000000000000000000000000000000111000111100
0111000000000000000000000000000000000000000000000000111100111100111100
0000000000000000000000000000000000000000000000111110111011111100000000
0000000000000000000000000000000000000000000000111100000000000000000000
0000000000000000000000000000000001111110011001111110000000000000000000
0000000000000000000000000110110011011011001001100000000000000000000000
0000000000000000001111001101010010110111111000000000000000000000000000
0000000000111111100101011010100111111000000000000000000000000000000000
0000000011110001000010001110000000000000000000000000000000000000011111
1100011001010010011000111111110000000000000000000000000001110000011110
0100101000110111100000111100000000000000000000000110000000000011101011
1101011000000000000110000000000000000000011100000000000000111000001110
0000000000000001100000000000000000010000000000000000001111111000000000
0000000000110000000000000001100000000000000000011111111110000000000000
0000011000000000000001100000000000000000100001100011000000000000000001
1000000000000011011000000000000011000000000000110000000000000110010000
0000000110000110000000001100001110111100001110000000011000101000000000
0101111001111111110000001011010010000001111111100111111000000000101100
0000000110000000000000000000000000010000000000010100000000110000000000
0000001111111111111111111110000000000000001110000001000000000000000000
1100000000000000001100000000000000000010000010000000000000000000001000
1000000100010000000000000000000000100100000000000000000000000100010110
1000100000000000000000000000000000000000000000000000000001001001001000
0000000000000000000000000000000000000000000000000000011111100000000000
0000000000000000000000000000000000000000000000000110000000000000000000
0000000000000000000000000000000000000000001110000000000000000000000000
0000000000000000000000000000000000001110000000000000000000000000000000
0000000000000000000000000000001110000000000000000000000000000000000000
0000000000000000000000001100000000000000000000000000000000000000000000
0000000000000000001100000000000000000000000000000000000000000000000000
0000000000001100000000000000000000000000000000000000000000000000000000
0000001100000000000000000000000000000000000000000000000000000000000000
1100000000000000000000000000000000000000000000000000000000000000111000
0000000000000000000000000000000000000000000000000000000000011000000000
0000000000000000000000000000000000000000000000000000011000000000000000
0000000000000000000000000000000000000000000000011000000000000000000000
0000000000000000000000000000000000000000011100000000000000000000000000
0000000000000000000000000000000000001100000000000000000000000000000000
0000000000000000000000000000001100000000000000000000000000000000000000
0000000000000000000000000110000000000000000000000000000000000000000000
0000000000000000000111000000000000000000000000000000000000000000000000
0000000000000011000000000000000000000000000000000000000000000000000000
0000000011000000000000000000000000000000000000000000000000000000000000
0001100000000000000000000000000000000000000000000000000000000000000110
0000000000000000000000000000000000000000000000000000000000000011000000
0000000000000000000000000000000000000000000000000000000011000000000000
0000000000000000000000000000000000000000000000000001000000000000000000
0000000000000000000000000000000000000000000001000000000000000000000000
0000000000000000000000000000000000000001100000000000000000000000000000
0000000000000000000000000000000001100000000000000000000000000000000000
0000000000000000000000000001100000000000000000000000000000000000000000
0000000000000000000001100000000000000000000000000000000000000000000000
0000000000000001100000000000000000000000000000000000000000000000000000
0000000001100000000000000000000000000000000000000000000000000000000000
0001000000000000000000000000000000000000000000000000000000000000000100
0000000000000000000000000000000000000000000000000000000000001100000000
0000000000000000000000000000000000000000000000000000001100000000000000
0000000000000000000000000000000000000000000000001000000000000000000000
0000000000000000000000000000000000000000011000000000000000000000000000
0000000000000000000000000000000000111000000000000000000000000000000000
0000000000000000000000000001110000000000000000000000000000000000000000
0000000000000000000001100000000000000000000000000000000000000000000000
0000000000000001100000000000000000000000000000000000000000000000000000
0000000011000000000000000000000000000000000000000000000000000000000000
0010000000000000000000000000000000000000000000000000000000000000000000
0000000000000000000000000000