P1
# CREATOR: GIMP PNM Filter Version 1.1
128 153
0000000000000000000000000000000000000000000000000000000000000000000000
0000000000000000000000000000000000000000000000000000000000000000000000
0000000000000000000000000000000000000000000000000000000100000000000000
0000000000000000000000000000000000000000000000000000000000000000000000
0000000000000000000000000000000000010000000010000000000000000000000000
0000000000000000000000000000000000000000000000000000000000000000000000
0000000000000000000000100000000001000000000000000000000000000000000000
0000000000000000000000000000000000000000000000000000000000000000000000
0000000011000000000000110000000000000000000000000000000000000000000000
0000000000000000000000000000000000000000000000000000000000000000011000
0000000000011000000000000000000000000000000000000000000000000000000000
0000000000000000000000000000000000000000000000000000110000000000000000
1100000000000000000000000000000000000000000000000000000000000000000000
0000000000000000000000000000000000000001100000000000000000011000000000
0000000000000000000000000000000000000000000000000000000000000000000000
0000000000000000000000000011100000000000000000011100000000000000000000
0000000000000000000000000000000000000000000000000000000000000000000000
0000000000000111000000000000000000001110000000000000000000000000000000
0000000000000000000000000000000000000000000000000000000000000000000000
1111000000001110000000001110000000000000000000000000000000000000000000
0000000000000000000000000000000000000000000000000000000000111100000000
1111000000001111000000000000000000000000000000000000000000000000000000
0000000000000000000000000000000000000000000001111100000001111110000000
1111100000000000000000000000000000000000000000000000000000000000000000
0000000000000000000000000000000001111100000001111110000000111110000000
0000000000000000000000000000000000000000000000000000000000000000000000
0000000000000000000011111110000001111110000001111111000000000000000000
0000000000000000000000000000000000000000000000000000000000000000000000
0000000011111111000001111110000111111111000000000000000000000000000000
0000000000000000000000000000000000000000000000000000000000000000011111
1111110001111110011111111111100000000000000000000000000000000000000000
0000000000000000000000000000000000000000000000000000011100000111110111
1110111110000000100000000000000000000000000000000000000000000000000000
0000000000000000000000000000000000000000000000000000011111111110000000
0000000000000000000000000000000000000000000000000000000000000000000000
0000000000000000000000000000000000000000000111111000000100000000000000
0000000000000000000000000000000000000000000000000000000000000000000000
0000000000000000111111111110000011110000011111111110000000000000000000
0000000000000000000000000000000000000000000000000000000000000000000000
0000011111111111100011100001111111111110000000000000000000000000000000
0000000000000000000000000000000000000000000000000000000000010000011100
0011100001100001100000111000011100000000000000000000000000000000000000
0000000000000000000000000000000000000000000001111110001100000111000110
0011000001110001111110000000000000000000000000000000000000000000000000
0000000000000000000000000000000011111111000111100011000110001100011100
0011111111000000000000000000000000000000000000000000000000000000000000
0000000000000000001111111111100001110011000110001100111000011111111111
0000000000000000000000000000000000000000000000000000000000000000000000
0000011111111111110000110011000110001100110001111111111111100000000000
0000000000000000000000000000000000000000000000000000000000000000000111
1111111000010011000110001100100001111111111000000000000000000000000000
0000000000000000000000000000000000000000000000000000000000011111110000
0011000110001000000011111110000000000000000000000000000000000000000000
0000000000000000000000000000000000000000000000000011111000001100011000
1100000111110000000000000000000000000000000000000000000000000000000000
0000000000000000000000111111110100000001111100000100011000100000111100
0000001111111111100000000000000000000000000000000000000000000000000000
0000001111111111111111110000011110000100011000100001110000001111111111
1111111110000000000000000000000000000000000000000000000000000011111110
0100010111111100000111000110011001100011100001111111000000000101111110
0000000000000000000000000000000000000000000000001111100000000000000000
1111000011100010011001000111000111110000000000000000001111100000000000
0000000000000000000000000000000000111110000000000000000000001111000011
0001111110001100011110000000000000000000000011110000000000000000000000
0000000000000000000001111000000000000000000000000011110001100011110001
1000111000000000000000000000000000111100000000000000000000000000000000
0000000111100000000000000000000000000000011100110000100011001110000000
0000000000000000000000001110000000000000000000000000000000000000111000
0000000000000000000000000000000111011100001101111000000000000000000000
0000000000000111000000000000000000000000000000000001110000000000000000
0000000000000000000001111110011111100000000000000000000000000000000000
0011100000000000000000000000000000000011100000000000000000000000000000
0000000001111111111111100000000000000000000000000000000000000111000000
0000000000000000000000000111000000000000000000000000000000000000011111
1111111111111000000000000000000000000000000000000011100000000000000000
0000000000000110000000000000000000000000000000000000111000011111100001
1110000000000000000000000000000000000001110000000000000000000000000000
1111000000000000000000000000000000000011100000000110000000011100000000
0000000000000000000000000011111000000000000000000000000001111110000000
0000000000000000000000001111000000000110000000000111000000000000000000
0000000000001111111000000000000000000000000011110111100000000000000000
0000000000011100000000000110000000000011110000000000000000000000000001
1100011100000000000000000000000011000000111000000000000000000000001111
0000000001100010011000000000111100000000000000000000000111000000111000
0000000000000000000110000000011100000000000000000000111100000000011111
0100111110000000001111000000000000000000111100000000011000000000000000
0000001100001110000111100000000000000111110000000000111111011011111100
0000000001111100000000000011110000011110001100000000000000000000110111
1111100000111111110111111110000000000010100000101000001010000000000001
1111111111111110000011111111100110000000000000000001100111111110000000
0011111111110000000000000000000000000000000000000000000000001111111111
0000000000011111110010000000000000000001001111100000000000000000111110
0000000000000000000000000000000000000000000000000011100000000000000000
0001110011000000000000000011011100000000000000000000000110000000101010
1010110110110111101101101101110100000110000000000000000000000001111110
0000000000000111110000000000000000000000000000000111111111111111111111
1111111111111111111110000000000000000000000000000000011110000000000000
0111000000000000000000000000000000000111110000000000000000000000000000
0000011110000000000000000000000000000000000111000000000000110000000000
0000000000000000000000000011100000000000000000000000000000000001110000
0000000000000000000000000000000001100000000001100000000000000000000000
0000000000000001110000000000000000000000000000000011100000000000000000
0000000000000000000000110000000011000000000000000000000000000000000000
0000011100000110000000000000011000001110000000000000000000000000000000
0000000000010000000100000000000000000000000000000000000000000000011000
0011100110111000110000011000000000000000000000000000000000000000000000
1000000100000000000000000000000000000000000000000000000110000010001111
1001000001100000000000000000000000000000000000000000000000010000000000
0000000000000000000000000000000000000000000001100001000010001100001000
0000000000000000000000000000000000000000000000000001000000000000000000
0000000000000000000000000000000000011001100000011001110000000000000000
0000000000000000000000000000000000000000000000000000000000000000000000
0000000000000000000000000100111111110010000000000000000000000000000000
0000000000000000000000000000000000000000000000000000000000000000000000
0000000000000011111111111100000000000000000000000000000000000000000000
0000000000000000000000000000000000000000000000000000000000000000000000
0000111111110000000000000000000000000000000000000000000000000000000000
0000000000000000000000000000000000000000000000000000000000000001111110
0000000000000000000000000000000000000000000000000000000000000000000000
0000000000000000000000000000000000000000000000000001111100000000000000
0000000000000000000000000000000000000000000000000000000000000000000000
0000000000000000000000000000000000000001111100000000000000000000000000
0000000000000000000000000000000000000000000000000000000000000000000000
0000000000000000000000000011111100000000000000000000000000000000000000
0000000000000000000000000000000000000000000000000000000000000000000000
0000000000000011111000000000000000000000000000000000000000000000000000
0000000000000000000000000000000000000000000000000000000000000000000000
0011111000000000000000000000000000000000000000000000000000000000000000
0000000000000000000000000000000000000000000000000000000000001111100000
0000000000000000000000000000000000000000000000000000000000000000000000
0000000000000000000000000000000000000000000000001111100000000000000000
0000000000000000000000000000000000000000000000000000000000000000000000
0000000000000000000000000000000000001111100000000000000000000000000000
0000000000000000000000000000000000000000000000000000000000000000000000
0000000000000000000000001111000000000000000000000000000000000000000000
0000000000000000000000000000000000000000000000000000000000000000000000
0000000000001111000000000000000000000000000000000000000000000000000000
0000000000000000000000000000000000000000000000000000000000000000000000
1111000000000000000000000000000000000000000000000000000000000000000000
0000000000000000000000000000000000000000000000000000000000111100000000
0000000000000000000000000000000000000000000000000000000000000000000000
0000000000000000000000000000000000000000000000111100000000000000000000
0000000000000000000000000000000000000000000000000000000000000000000000
0000000000000000000000000000000000111100000000000000000000000000000000
0000000000000000000000000000000000000000000000000000000000000000000000
0000000000000000000000111100000000000000000000000000000000000000000000
0000000000000000000000000000000000000000000000000000000000000000000000
0000000000111110000000000000000000000000000000000000000000000000000000
0000000000000000000000000000000000000000000000000000000000000000000001
1110000000000000000000000000000000000000000000000000000000000000000000
0000000000000000000000000000000000000000000000000000000001111000000000
0000000000000000000000000000000000000000000000000000000000000000000000
0000000000000000000000000000000000000000000001111000000000000000000000
0000000000000000000000000000000000000000000000000000000000000000000000
0000000000000000000000000000000001111000000000000000000000000000000000
0000000000000000000000000000000000000000000000000000000000000000000000
0000000000000000000001111000000000000000000000000000000000000000000000
0000000000000000000000000000000000000000000000000000000000000000000000
0000000000111100000000000000000000000000000000000000000000000000000000
0000000000000000000000000000000000000000000000000000000000000000000011
1100000000000000000000000000000000000000000000000000000000000000000000
0000000000000000000000000000000000000000000000000000000001111000000000
0000000000000000000000000000000000000000000000000000000000000000000000
0000000000000000000000000000000000000000000001111000000000000000000000
0000000000000000000000000000000000000000000000000000000000000000000000
0000000000000000000000000000000001111000000000000000000000000000000000
0000000000000000000000000000000000000000000000000000000000000000000000
0000000000000000000000111100000000000000000000000000000000000000000000
0000000000000000000000000000000000000000000000000000000000000000000000
0000000000111100000000000000000000000000000000000000000000000000000000
0000000000000000000000000000000000000000000000000000000000000000000001
1100000000000000000000000000000000000000000000000000000000000000000000
0000000000000000000000000000000000000000000000000000000001111000000000
0000000000000000000000000000000000000000000000000000000000000000000000
0000000000000000000000000000000000000000000001111000000000000000000000
0000000000000000000000000000000000000000000000000000000000000000000000
0000000000000000000000000000000000111100000000000000000000000000000000
0000000000000000000000000000000000000000000000000000000000000000000000
0000000000000000000000111100000000000000000000000000000000000000000000
0000000000000000000000000000000000000000000000000000000000000000000000
0000000000011110000000000000000000000000000000000000000000000000000000
0000000000000000000000000000000000000000000000000000000000000000000000
1110000000000000000000000000000000000000000000000000000000000000000000
0000000000000000000000000000000000000000000000000000000000111100000000
0000000000000000000000000000000000000000000000000000000000000000000000
0000000000000000000000000000000000000000000000011110000000000000000000
0000000000000000000000000000000000000000000000000000000000000000000000
0000000000000000000000000000000000011110000000000000000000000000000000
0000000000000000000000000000000000000000000000000000000000000000000000
0000000000000000000000001110000000000000000000000000000000000000000000
0000000000000000000000000000000000000000000000000000000000000000000000
0000000000001111000000000000000000000000000000000000000000000000000000
0000000000000000000000000000000000000000000000000000000000000000000000
0111000000000000000000000000000000000000000000000000000000000000000000
0000000000000000000000000000000000000000000000000000000000011110000000
0000000000000000000000000000000000000000000000000000000000000000000000
0000000000000000000000000000000000000000000000001110000000000000000000
0000000000000000000000000000000000000000000000000000000000000000000000
0000000000000000000000000000000000001110000000000000000000000000000000
0000000000000000000000000000000000000000000000000000000000000000000000
0000000000000000000000001111000000000000000000000000000000000000000000
0000000000000000000000000000000000000000000000000000000000000000000000
0000000000000111000000000000000000000000000000000000000000000000000000
0000000000000000000000000000000000000000000000000000000000000000000000
0111000000000000000000000000000000000000000000000000000000000000000000
0000000000000000000000000000000000000000000000000000000000011100000000
0000000000000000000000000000000000000000000000000000000000000000000000
0000000000000000000000000000000000000000000000011110000000000000000000
0000000000000000000000000000000000000000000000000000000000000000000000
0000000000000000000000000000000000001110000000000000000000000000000000
0000000000000000000000000000000000000000000000000000000000000000000000
0000000000000000000000001110000000000000000000000000000000000000000000
0000000000000000000000000000000000000000000000000000000000000000000000
0000000000001110000000000000000000000000000000000000000000000000000000
0000000000000000000000000000000000000000000000000000000000000000000000
1110000000000000000000000000000000000000000000000000000000000000000000
0000000000000000000000000000000000000000000000000000000000111000000000
0000000000000000000000000000000000000000000000000000000000000000000000
0000000000000000000000000000000000000000000000111000000000000000000000
0000000000000000000000000000000000000000000000000000000000000000000000
0000000000000000000000000000000000111000000000000000000000000000000000
0000000000000000000000000000000000000000000000000000000000000000000000
0000000000000000000000111000000000000000000000000000000000000000000000
0000000000000000000000000000000000000000000000000000000000000000000000
0000000000111000000000000000000000000000000000000000000000000000000000
0000000000000000000000000000000000000000000000000000000000000000000011
1000000000000000000000000000000000000000000000000000000000000000000000
0000000000000000000000000000000000000000000000000000000011100000000000
0000000000000000000000000000000000000000000000000000000000000000000000
0000000000000000000000000000000000000000000011100000000000000000000000
0000000000000000000000000000000000000000000000000000000000000000000000
0000000000000000000000000000000011100000000000000000000000000000000000
0000000000000000000000000000000000000000000000000000000000000000000000
0000000000000000000011100000000000000000000000000000000000000000000000
0000000000000000000000000000000000000000000000000000000000000000000000
0000000011100000000000000000000000000000000000000000000000000000000000
0000000000000000000000000000000000000000000000000000000000000000001100
0000000000000000000000000000000000000000000000000000000000000000000000
0000000000000000000000000000000000000000000000000000011100000000000000
0000000000000000000000000000000000000000000000000000000000000000000000
0000000000000000000000000000000000000000011100000000000000000000000000
0000000000000000000000000000000000000000000000000000000000000000000000
0000000000000000000000000000011100000000000000000000000000000000000000
0000000000000000000000000000000000000000000000000000000000000000000000
0000000000000000011000000000000000000000000000000000000000000000000000
0000000000000000000000000000000000000000000000000000000000000000000000
0000111000000000000000000000000000000000000000000000000000000000000000
0000000000000000000000000000000000000000000000000000000000000011000000
0000000000000000000000000000000000000000000000000000000000000000000000
0000000000000000000000000000000000000000000000000011000000000000000000
0000000000000000000000000000000000000000000000000000000000000000000000
0000000000000000000000000000000000001110000000000000000000000000000000
0000000000000000000000000000000000000000000000000000000000000000000000
0000000000000000000000001111100000000000000000000000000000000000000000
0000000000000000000000000000000000000000000000000000000000000000000000
0000000000111111000000000000000000000000000000000000000000000000000000
0000000000000000000000000000000000000000000000000000000000000000000011
1100000000000000000000000000000000000000000000000000000000000000000000
0000000000000000000000000000000000000000000000000000000011111000000000
0000000000000000000000000000000000000000000000000000000000000000000000
0000000000000000000000000000000000000000001011110000000000000000000000
0000000000000000000000000000000000000000000000000000000000000000000000
0000000000000000000000000000001111000000000000000000000000000000000000
0000000000000000000000000000000000000000000000000000000000000000000000
0000000000000000001111100000000000000000000000000000000000000000000000
0000000000000000000000000000000000000000000000000000000000000000000000
0000001111000000000000000000000000000000000000000000000000000000000000
0000000000000000000000000000000000000000000000000000000000000000111100
0000000000000000000000000000000000000000000000000000000000000000000000
0000000000000000000000000000000000000000000000000001110000000000000000
0000000000000000000000000000000000000000000000000000000000000000000000
0000000000000000000000000000000000000001110000000000000000000000000000
0000000000000000000000000000000000000000000000000000000000000000000000
0000000000000000000000000011000000000000000000000000000000000000000000
0000000000000000000000000000000000000000000000000000000000000000000000
0000000000000010000000000000000000000000000000000000000000000000000000
0000000000000000000000000000000000000000000000000000000000000000000000
0100000000000000000000000000000000000000000000000000000000000000000000
0000000000000000000000000000000000000000000000000000000000000000000000
000000000000000000000000000000000000000000000000000000