M48
;DRILL file {PCBnew (20100406 SVN-R2508)-final} date 21/05/2011 14:21:02
;FORMAT={-.-/ absolute / inch / decimal}
R,T
VER,1
FMAT,2
INCH,TZ
TCST,OFF
ICI,OFF
ATC,ON
T1C0.020
T2C0.032
T3C0.040
T4C0.045
T5C0.060
T6C0.125
%
M47
G05
M72
T1
X2.980Y4.600
X2.980Y4.656
X3.135Y3.150
X3.350Y4.180
X3.742Y5.157
X4.430Y5.222
X4.495Y5.345
X4.550Y5.345
X4.978Y4.758
X4.978Y4.812
X5.000Y5.305
X5.050Y5.340
X5.125Y3.750
X5.164Y4.610
X5.188Y2.902
X5.450Y5.460
X5.542Y4.874
X5.665Y4.250
X5.670Y4.350
X5.675Y5.345
X5.710Y4.515
X5.728Y3.050
X5.745Y5.335
X5.795Y5.225
X5.845Y5.235
X5.902Y4.620
X5.945Y4.588
X6.005Y4.700
X6.008Y3.150
X6.042Y3.350
X6.042Y3.448
X6.085Y4.665
X6.130Y3.975
X6.130Y4.190
X6.132Y3.467
X6.160Y3.024
X6.160Y3.115
X6.188Y2.990
X6.237Y3.294
X6.250Y3.435
X6.290Y1.100
X6.317Y3.610
X6.352Y3.325
X6.410Y3.568
X6.425Y3.990
X6.425Y4.155
X6.500Y2.670
X6.500Y2.915
X6.610Y3.410
X6.620Y3.628
X6.620Y3.674
X6.630Y3.238
X6.642Y3.502
X6.642Y3.442
X6.650Y3.005
X6.664Y1.071
X6.672Y3.470
X6.690Y4.227
X6.700Y3.534
X6.705Y3.495
X6.712Y3.162
X6.726Y3.564
X6.736Y2.972
X6.744Y3.674
X6.756Y3.192
X6.800Y4.055
X6.810Y2.814
X6.810Y3.807
X6.820Y4.105
X6.830Y3.632
X6.842Y2.776
X6.852Y3.294
X6.852Y3.348
X6.854Y4.059
X6.855Y3.063
X6.855Y3.110
X6.862Y3.813
X6.887Y3.627
X6.905Y2.781
X6.937Y4.125
X6.967Y2.975
X7.012Y3.033
X7.013Y3.995
X7.020Y5.880
X7.091Y2.973
X7.092Y3.030
X7.106Y5.527
X7.108Y2.700
X7.110Y2.748
X7.120Y5.755
X7.141Y2.598
X7.144Y2.668
X7.160Y3.620
X7.174Y2.632
X7.180Y3.577
X7.200Y3.127
X7.200Y3.535
X7.225Y3.162
X7.230Y3.500
X7.240Y3.085
X7.258Y2.481
X7.265Y3.395
X7.271Y3.344
X7.273Y3.060
X7.274Y3.180
X7.275Y5.815
X7.350Y2.697
X7.372Y2.658
X7.402Y5.770
X7.410Y5.815
X7.425Y3.555
X7.441Y3.622
X7.462Y3.045
X7.462Y3.127
X7.472Y3.332
X7.472Y3.680
X7.510Y3.301
X7.512Y3.047
X7.512Y3.137
X7.515Y3.680
X7.523Y5.338
X7.534Y5.236
X7.552Y3.472
X7.557Y3.680
X7.561Y3.079
X7.580Y3.432
X7.600Y3.050
X7.602Y3.843
X7.602Y5.225
X7.640Y5.125
X7.692Y2.924
X7.720Y4.600
X7.740Y4.637
X7.745Y2.977
X7.804Y5.093
X7.850Y5.875
X7.955Y5.645
T2
X2.675Y3.600
X2.675Y3.700
X3.050Y4.875
X3.050Y4.975
X3.200Y1.350
X3.200Y1.450
X3.200Y1.550
X3.200Y1.650
X3.200Y1.750
X3.200Y1.850
X3.200Y1.950
X3.200Y2.050
X3.200Y2.175
X3.200Y2.275
X3.200Y2.375
X3.200Y2.475
X3.200Y2.575
X3.200Y2.675
X3.200Y2.775
X3.200Y2.875
X3.200Y3.000
X3.200Y3.100
X3.200Y3.200
X3.200Y3.300
X3.200Y3.400
X3.200Y3.500
X3.200Y3.600
X3.200Y3.700
X3.200Y3.825
X3.200Y3.925
X3.200Y4.025
X3.200Y4.125
X3.500Y1.350
X3.500Y1.450
X3.500Y1.550
X3.500Y1.650
X3.500Y1.750
X3.500Y1.850
X3.500Y1.950
X3.500Y2.050
X3.500Y2.175
X3.500Y2.275
X3.500Y2.375
X3.500Y2.475
X3.500Y2.575
X3.500Y2.675
X3.500Y2.775
X3.500Y2.875
X3.500Y3.000
X3.500Y3.100
X3.500Y3.200
X3.500Y3.300
X3.500Y3.400
X3.500Y3.500
X3.500Y3.600
X3.500Y3.700
X3.500Y3.825
X3.500Y3.925
X3.500Y4.025
X3.500Y4.125
X3.550Y4.250
X3.550Y4.550
X3.600Y1.350
X3.600Y1.450
X3.600Y1.550
X3.600Y1.650
X3.600Y1.750
X3.600Y1.850
X3.600Y1.950
X3.600Y2.050
X3.600Y2.175
X3.600Y2.275
X3.600Y2.375
X3.600Y2.475
X3.600Y2.575
X3.600Y2.675
X3.600Y2.775
X3.600Y2.875
X3.600Y3.000
X3.600Y3.100
X3.600Y3.200
X3.600Y3.300
X3.600Y3.400
X3.600Y3.500
X3.600Y3.600
X3.600Y3.700
X3.600Y3.825
X3.600Y3.925
X3.600Y4.025
X3.605Y4.125
X3.650Y4.250
X3.650Y4.550
X3.650Y5.500
X3.725Y1.225
X3.750Y4.250
X3.750Y4.550
X3.750Y5.500
X3.825Y1.225
X3.850Y5.500
X3.900Y1.350
X3.900Y1.450
X3.900Y1.550
X3.900Y1.650
X3.900Y1.750
X3.900Y1.850
X3.900Y1.950
X3.900Y2.050
X3.900Y2.175
X3.900Y2.275
X3.900Y2.375
X3.900Y2.475
X3.900Y2.575
X3.900Y2.675
X3.900Y2.775
X3.900Y2.875
X3.900Y3.000
X3.900Y3.100
X3.900Y3.200
X3.900Y3.300
X3.900Y3.400
X3.900Y3.500
X3.900Y3.600
X3.900Y3.700
X3.900Y3.825
X3.900Y3.925
X3.900Y4.025
X3.905Y4.125
X4.000Y1.250
X4.000Y1.350
X4.000Y1.450
X4.000Y1.550
X4.000Y1.650
X4.000Y1.750
X4.000Y1.850
X4.000Y1.950
X4.000Y2.050
X4.000Y2.175
X4.000Y2.275
X4.000Y2.375
X4.000Y2.475
X4.000Y3.000
X4.000Y3.100
X4.000Y3.200
X4.000Y3.300
X4.000Y3.400
X4.000Y3.500
X4.000Y3.600
X4.000Y3.825
X4.000Y3.925
X4.000Y4.025
X4.000Y4.125
X4.005Y2.575
X4.005Y2.675
X4.005Y2.775
X4.005Y2.875
X4.005Y3.700
X4.275Y4.650
X4.275Y4.750
X4.300Y1.250
X4.300Y1.350
X4.300Y1.450
X4.300Y1.550
X4.300Y1.650
X4.300Y1.750
X4.300Y1.850
X4.300Y1.950
X4.300Y2.050
X4.300Y2.175
X4.300Y2.275
X4.300Y2.375
X4.300Y2.475
X4.300Y3.000
X4.300Y3.100
X4.300Y3.200
X4.300Y3.300
X4.300Y3.400
X4.300Y3.500
X4.300Y3.600
X4.300Y3.825
X4.300Y3.925
X4.300Y4.025
X4.300Y4.125
X4.305Y2.575
X4.305Y2.675
X4.305Y2.775
X4.305Y2.875
X4.305Y3.700
X4.375Y4.300
X4.375Y4.600
X4.375Y4.925
X4.375Y5.025
X4.425Y1.350
X4.425Y1.450
X4.425Y1.550
X4.425Y1.650
X4.425Y1.750
X4.425Y1.850
X4.425Y1.950
X4.425Y2.050
X4.425Y2.175
X4.425Y2.275
X4.425Y2.375
X4.425Y2.475
X4.425Y2.575
X4.425Y2.675
X4.425Y2.775
X4.425Y2.875
X4.425Y3.000
X4.425Y3.100
X4.425Y3.200
X4.425Y3.300
X4.425Y3.400
X4.425Y3.500
X4.425Y3.600
X4.425Y3.700
X4.475Y4.300
X4.475Y4.600
X4.475Y4.925
X4.475Y5.125
X4.525Y1.350
X4.525Y1.450
X4.525Y1.550
X4.525Y1.650
X4.525Y1.750
X4.525Y1.850
X4.525Y1.950
X4.525Y2.050
X4.525Y2.175
X4.525Y2.275
X4.525Y2.375
X4.525Y2.475
X4.525Y2.575
X4.525Y2.675
X4.525Y2.775
X4.525Y2.875
X4.525Y3.000
X4.525Y3.100
X4.525Y3.200
X4.525Y3.300
X4.525Y3.400
X4.525Y3.500
X4.525Y3.600
X4.525Y3.700
X4.575Y4.650
X4.575Y4.750
X4.575Y5.025
X4.575Y5.125
X4.600Y3.925
X4.600Y4.325
X4.775Y2.900
X4.775Y3.000
X4.775Y3.100
X4.775Y3.200
X4.775Y3.300
X4.775Y3.400
X4.775Y3.500
X4.775Y3.600
X4.775Y4.100
X4.775Y4.200
X4.775Y4.300
X4.775Y4.400
X4.775Y4.500
X4.775Y4.600
X4.775Y4.700
X4.875Y3.875
X4.975Y3.875
X5.025Y2.475
X5.025Y2.575
X5.075Y2.900
X5.075Y3.000
X5.075Y3.100
X5.075Y3.200
X5.075Y3.300
X5.075Y3.400
X5.075Y3.500
X5.075Y3.600
X5.075Y4.100
X5.075Y4.200
X5.075Y4.300
X5.075Y4.400
X5.075Y4.500
X5.075Y4.600
X5.075Y4.700
X5.250Y2.475
X5.250Y2.575
X5.250Y2.755
X5.250Y3.055
X5.300Y3.300
X5.300Y3.400
X5.300Y3.500
X5.300Y3.600
X5.325Y3.900
X5.325Y4.000
X5.325Y4.100
X5.325Y4.200
X5.325Y4.300
X5.325Y4.400
X5.325Y4.500
X5.325Y4.600
X5.350Y2.475
X5.350Y2.575
X5.350Y2.755
X5.350Y3.055
X5.500Y4.000
X5.500Y4.100
X5.500Y4.200
X5.500Y4.300
X5.500Y4.400
X5.500Y4.500
X5.500Y4.600
X5.500Y4.700
X5.525Y2.900
X5.525Y3.000
X5.525Y3.100
X5.525Y3.200
X5.525Y3.300
X5.525Y3.400
X5.525Y3.500
X5.525Y3.600
X5.575Y2.475
X5.575Y2.575
X5.612Y4.867
X5.612Y4.967
X5.775Y2.425
X5.775Y2.525
X5.800Y4.000
X5.800Y4.100
X5.800Y4.200
X5.800Y4.300
X5.800Y4.400
X5.800Y4.500
X5.800Y4.600
X5.800Y4.700
X5.825Y2.900
X5.825Y3.000
X5.825Y3.100
X5.825Y3.200
X5.825Y3.300
X5.825Y3.400
X5.825Y3.500
X5.825Y3.600
X5.875Y2.425
X5.875Y2.525
X5.975Y2.425
X5.975Y2.525
X6.000Y4.200
X6.000Y4.300
X6.000Y4.400
X6.000Y4.500
X6.075Y2.425
X6.075Y2.525
X6.200Y3.525
X6.200Y3.625
X6.200Y3.725
X6.200Y3.825
X6.200Y3.925
X6.200Y4.025
X6.275Y4.850
X6.275Y4.950
X6.294Y5.474
X6.294Y5.574
X6.300Y4.200
X6.300Y4.300
X6.300Y4.400
X6.300Y4.500
X6.350Y4.900
X6.369Y5.524
X6.475Y2.025
X6.500Y2.175
X6.600Y2.175
X6.600Y4.525
X6.600Y4.625
X6.750Y4.225
X6.750Y4.425
X6.750Y4.525
X6.750Y4.625
X6.750Y4.725
X6.775Y2.350
X6.780Y2.175
X6.850Y1.455
X6.850Y1.755
X6.875Y2.025
X6.875Y2.350
X6.950Y1.455
X6.950Y1.755
X6.975Y2.350
X7.000Y4.875
X7.000Y4.975
X7.000Y5.075
X7.000Y5.175
X7.000Y5.275
X7.000Y5.375
X7.000Y5.575
X7.000Y5.675
X7.005Y5.475
X7.025Y1.950
X7.025Y2.050
X7.050Y1.455
X7.050Y1.755
X7.050Y4.225
X7.050Y4.425
X7.050Y4.525
X7.050Y4.625
X7.050Y4.725
X7.080Y2.175
X7.150Y1.455
X7.150Y1.755
X7.250Y1.455
X7.250Y1.755
X7.275Y2.075
X7.275Y2.175
X7.275Y4.100
X7.275Y4.400
X7.275Y4.525
X7.275Y4.625
X7.300Y4.875
X7.300Y4.975
X7.300Y5.075
X7.300Y5.175
X7.300Y5.275
X7.300Y5.375
X7.300Y5.575
X7.300Y5.675
X7.305Y5.475
X7.350Y1.455
X7.350Y1.755
X7.350Y2.300
X7.425Y3.850
X7.425Y4.050
X7.425Y4.250
X7.425Y4.450
X7.425Y4.775
X7.425Y4.875
X7.425Y4.975
X7.425Y5.075
X7.425Y5.175
X7.425Y5.275
X7.425Y5.375
X7.425Y5.475
X7.425Y5.575
X7.425Y5.675
X7.450Y2.200
X7.450Y2.300
X7.450Y2.600
X7.500Y1.455
X7.500Y1.755
X7.525Y3.850
X7.525Y4.050
X7.525Y4.250
X7.525Y4.450
X7.525Y4.600
X7.550Y2.600
X7.575Y1.900
X7.575Y2.000
X7.575Y2.100
X7.605Y1.455
X7.605Y1.755
X7.625Y2.350
X7.625Y4.600
X7.650Y3.725
X7.650Y3.825
X7.650Y4.125
X7.650Y4.225
X7.650Y4.525
X7.675Y1.900
X7.675Y2.000
X7.675Y2.100
X7.700Y1.000
X7.700Y1.300
X7.700Y1.455
X7.700Y1.755
X7.725Y2.250
X7.725Y2.350
X7.725Y2.600
X7.725Y4.775
X7.725Y4.875
X7.725Y4.975
X7.725Y5.075
X7.725Y5.175
X7.725Y5.275
X7.725Y5.375
X7.725Y5.475
X7.725Y5.575
X7.725Y5.675
X7.750Y3.725
X7.750Y3.825
X7.750Y4.125
X7.750Y4.225
X7.750Y4.525
X7.750Y6.150
X7.750Y6.250
X7.775Y1.900
X7.775Y2.000
X7.775Y2.100
X7.800Y1.000
X7.800Y1.300
X7.800Y1.450
X7.800Y1.750
X7.800Y5.725
X7.800Y5.825
X7.800Y5.925
X7.800Y6.025
X7.825Y2.600
X7.900Y1.275
X7.900Y1.575
X8.000Y1.275
X8.000Y1.575
X8.025Y3.900
X8.025Y4.200
X8.025Y4.300
X8.025Y4.600
X8.050Y6.150
X8.050Y6.250
X8.075Y2.650
X8.100Y1.275
X8.100Y1.575
X8.100Y5.725
X8.100Y5.825
X8.100Y5.925
X8.100Y6.025
X8.125Y3.900
X8.125Y4.200
X8.125Y4.300
X8.125Y4.600
X8.200Y1.275
X8.200Y1.575
T3
X3.005Y4.295
X3.175Y1.225
X3.405Y4.295
X3.575Y1.225
X4.015Y4.230
X4.015Y4.630
X4.140Y4.230
X4.140Y4.630
X4.800Y1.000
X4.800Y6.300
X4.850Y1.625
X4.850Y1.725
X4.850Y1.825
X4.900Y1.000
X4.900Y6.300
X4.950Y1.525
X4.950Y1.625
X4.950Y1.725
X4.950Y1.825
X4.950Y1.925
X5.000Y1.000
X5.000Y6.300
X5.050Y1.525
X5.050Y1.625
X5.050Y1.725
X5.050Y1.825
X5.050Y1.925
X5.150Y1.525
X5.150Y1.625
X5.150Y1.725
X5.150Y1.825
X5.150Y1.925
X5.250Y1.525
X5.250Y1.625
X5.250Y1.725
X5.250Y1.825
X5.250Y1.925
X5.300Y1.000
X5.300Y6.300
X5.350Y1.525
X5.350Y1.625
X5.350Y1.725
X5.350Y1.825
X5.350Y1.925
X5.400Y1.000
X5.400Y6.300
X5.450Y1.525
X5.450Y1.625
X5.450Y1.725
X5.450Y1.825
X5.450Y1.925
X5.500Y1.000
X5.500Y6.300
X5.550Y1.525
X5.550Y1.625
X5.550Y1.725
X5.550Y1.825
X5.550Y1.925
X5.650Y1.525
X5.650Y1.625
X5.650Y1.725
X5.650Y1.825
X5.650Y1.925
X5.750Y1.525
X5.750Y1.625
X5.750Y1.725
X5.750Y1.825
X5.750Y1.925
X5.800Y1.000
X5.800Y6.300
X5.850Y1.525
X5.850Y1.625
X5.850Y1.725
X5.850Y1.825
X5.850Y1.925
X5.900Y1.000
X5.900Y6.300
X5.950Y1.525
X5.950Y1.625
X5.950Y1.725
X5.950Y1.825
X5.950Y1.925
X6.000Y1.000
X6.000Y6.300
X6.050Y1.525
X6.050Y1.625
X6.050Y1.725
X6.050Y1.825
X6.050Y1.925
X6.150Y1.525
X6.150Y1.625
X6.150Y1.725
X6.150Y1.825
X6.150Y1.925
X6.250Y1.525
X6.250Y1.625
X6.250Y1.725
X6.250Y1.825
X6.250Y1.925
X6.300Y1.000
X6.300Y6.300
X6.350Y1.525
X6.350Y1.625
X6.350Y1.725
X6.350Y1.825
X6.350Y1.925
X6.400Y1.000
X6.400Y6.300
X6.450Y1.525
X6.450Y1.625
X6.450Y1.725
X6.450Y1.825
X6.450Y1.925
X6.500Y1.000
X6.500Y6.300
X6.550Y1.625
X6.550Y1.725
X6.550Y1.825
X6.800Y1.000
X6.800Y6.300
X6.900Y1.000
X6.900Y6.300
X7.000Y1.000
X7.000Y6.300
X7.300Y1.000
X7.325Y6.300
X7.400Y1.000
X7.425Y6.300
X7.500Y1.000
X7.525Y6.300
X7.975Y1.750
X7.975Y1.850
X7.975Y1.950
X7.975Y2.050
X7.975Y2.150
X7.975Y2.250
X7.975Y2.350
X7.975Y2.450
X7.975Y2.550
X7.975Y2.650
X8.075Y1.750
X8.075Y1.850
X8.075Y1.950
X8.075Y2.050
X8.075Y2.150
X8.075Y2.250
X8.075Y2.350
X8.075Y2.450
X8.075Y2.550
T4
X4.800Y4.975
X4.800Y5.100
X5.300Y4.975
X5.300Y5.100
X6.475Y4.705
X6.475Y5.205
X6.475Y5.320
X6.475Y5.820
T5
X2.525Y1.541
X2.525Y1.697
X2.525Y1.853
X2.525Y2.009
X2.525Y2.165
X2.525Y2.789
X2.525Y2.945
X2.525Y3.101
X2.525Y3.257
X2.525Y3.413
X2.525Y3.903
X2.525Y4.059
X2.525Y4.215
X2.525Y4.371
X2.525Y4.527
X2.525Y5.151
X2.525Y5.306
X2.525Y5.463
X2.525Y5.619
X2.525Y5.775
X2.682Y1.541
X2.682Y1.697
X2.682Y1.853
X2.682Y2.009
X2.682Y2.165
X2.682Y2.789
X2.682Y2.945
X2.682Y3.101
X2.682Y3.257
X2.682Y3.413
X2.682Y3.903
X2.682Y4.059
X2.682Y4.215
X2.682Y4.371
X2.682Y4.527
X2.682Y5.151
X2.682Y5.307
X2.682Y5.463
X2.682Y5.619
X2.682Y5.775
X2.838Y4.214
X2.839Y1.541
X2.839Y1.697
X2.839Y1.853
X2.839Y2.009
X2.839Y2.165
X2.839Y2.790
X2.839Y2.945
X2.839Y3.101
X2.839Y3.257
X2.839Y3.413
X2.839Y3.903
X2.839Y4.059
X2.839Y4.371
X2.839Y4.527
X2.839Y5.151
X2.839Y5.307
X2.839Y5.463
X2.839Y5.619
X2.839Y5.775
T6
X2.743Y2.477
X2.743Y4.839
T0
M30
